<?xml version="1.0" encoding="utf-8"?>
<!-- Generator: Adobe Illustrator 23.0.6, SVG Export Plug-In . SVG Version: 6.00 Build 0)  -->
<svg version="1.1" id="Layer_1" xmlns="http://www.w3.org/2000/svg" xmlns:xlink="http://www.w3.org/1999/xlink" x="0px" y="0px"
	 width="864px" height="864px" viewBox="0 0 864 864" enable-background="new 0 0 864 864" xml:space="preserve">
<g>
	<path d="M537.3695,482.1354c-4.7939-1.2268-8.9844,7.503-23.4196,4.9228c-14.424-2.5824-7.7807,8.9685-4.1494,10.2597
		C531.2956,504.9354,542.1639,483.3624,537.3695,482.1354z"/>
	<path d="M569.9246,509.6803c-4.062,14.6891-22.6235,11.9953-27.583,21.5859c-4.0872,7.8942,1.911,14.714,11.5649,9.78
		C573.6694,530.9608,571.1766,505.1627,569.9246,509.6803z"/>
	<path d="M288.4156,509.6792c-1.2523-4.5176-3.7453,21.2805,16.0178,31.3659c9.6539,4.934,15.6647-1.8847,11.5776-9.78
		C311.0515,521.6742,292.4773,524.3693,288.4156,509.6792z"/>
	<path d="M263.9329,555.1151c-2.8982-6.9841-6.1232,11.4248,15.4109,29.6328c5.0226,4.2388,14.2595,0.9491,9.9568-7.1115l0,0
		C284.9858,569.5895,269.3091,568.1099,263.9329,555.1151z"/>
	<path d="M837.4605,150.0048c-14.0566-11.628-40.526-5.6298-56.506-2.8338c-12.5244,2.2014-24.7972,5.9603-37.5272,6.6179
		c-13.6525,0.6955-27.2025-1.1387-40.855-0.9492c-10.1095,0.1527-19.574,4.0998-28.8479,7.6934
		c-9.6926,3.7578-18.1449,6.4537-26.3557,12.5517c-10.8174,8.0596-22.5347,15.4362-34.3524,21.9646
		c-8.1727,4.5302-11.0964,7.7564-17.6108,13.9315c-8.4041,7.9585-18.2093,14.3217-26.5087,22.4832
		c-18.1435,17.8397-41.9445,32.5044-54.3551,55.418c-4.8216,8.9068-4.5921,18.7132-8.4153,27.949
		c-4.9469,11.9701-14.0689,20.9661-23.1915,29.8485c-6.2126,6.0613-13.0439,8.2878-19.2683,13.766
		c-1.709,1.5059-3.3045,3.1255-4.9354,4.707c-2.1268,2.0623-4.2889,4.1113-6.7442,5.7696
		c-1.1522,0.7715-2.3793,1.4291-3.4799,2.2647c-2.0615,1.5563-3.9597,2.9991-5.8192,4.7322
		c-0.9365,0.8734-2.8727,2.8338-4.4153,2.3033c-2.4561-0.8356-0.1906-4.9732,0.5316-6.4914
		c1.1889-2.5057,1.9856-6.2003,0.7448-9.0215c-1.0858-2.4426-2.6317-4.1883-4.4408-5.3268
		c1.0743-30.9237,20.6736-55.8105,44.9792-57.051c0.5946,1.2153,1.9251,2.0761,3.4803,2.0761c2.1106,0,3.807-1.5574,3.807-3.4799
		c0-1.9236-1.6953-3.4799-3.807-3.4799c-0.5557,0-1.0883,0.1135-1.5829,0.3169v-0.0507c-27.2406,0-49.6103,26.5958-51.356,60.0997
		c-0.4808-0.0883-0.9872-0.1272-1.4554-0.1401c-0.4808,0.014-0.9746,0.0518-1.468,0.1401
		c-1.7457-33.5039-24.1039-60.0997-51.3571-60.0997v0.0507c-0.4808-0.2034-1.0124-0.3169-1.5818-0.3169
		c-2.1002,0-3.8081,1.5563-3.8081,3.4799c0,1.9237,1.7079,3.4799,3.8081,3.4799c1.5555,0,2.8831-0.8619,3.4788-2.0761
		c24.3059,1.2405,43.9037,26.1273,44.9803,57.0513c-1.8088,1.1385-3.3524,2.8842-4.4279,5.3266
		c-1.2408,2.8223-0.4556,6.5158,0.7336,9.0215c0.7218,1.5182,2.9865,5.6561,0.545,6.4914
		c-1.5563,0.5305-3.4926-1.4299-4.4279-2.3033c-1.8606-1.7342-3.7579-3.177-5.8203-4.7322
		c-1.1007-0.8345-2.3289-1.4933-3.4673-2.2647c-2.4664-1.6572-4.63-3.7072-6.743-5.7696c-1.632-1.5815-3.2401-3.2011-4.948-4.707
		c-6.2129-5.4793-13.0453-7.7058-19.2697-13.766c-9.1223-8.8825-18.2446-17.8784-23.1926-29.8485
		c-3.8218-9.2358-3.5808-19.0421-8.414-27.9487c-12.4131-22.9138-36.199-37.5785-54.3554-55.4181
		c-8.3004-8.1605-18.1057-14.5248-26.5073-22.4833c-6.5032-6.1749-9.4389-9.4013-17.6122-13.9315
		c-11.8171-6.5284-23.5208-13.905-34.351-21.9645c-8.1996-6.0993-16.6642-8.7941-26.356-12.5518
		c-9.2748-3.5936-18.7392-7.5407-28.8485-7.6934c-13.6514-0.1894-27.203,1.6449-40.8545,0.9492
		c-12.7284-0.6588-25.0014-4.4166-37.5278-6.6179c-15.9791-2.796-42.4497-8.7941-56.5063,2.8338
		c-4.0227,3.3285-8.0088,9.8189-4.1239,21.9014c0.6187,1.911,1.9996,3.3651,3.3401,4.7827c1.1763,1.2408,2.3908,2.5307,2.796,3.8714
		c0.2903,0.9869,0.1009,2.3541-0.1149,3.7955c-1.4795,9.9705,7.1872,12.5633,10.5399,20.4714
		c3.8081,8.9329-1.2282,19.1055,0.9617,28.3804c1.1385,4.8334,5.0993,7.0726,7.427,11.0586
		c2.555,4.3775,2.4034,7.4525,3.8462,12.0332c3.5304,11.1595,10.5284,20.9142,13.5895,32.3654
		c1.9856,7.427,0.9858,14.4615,2.2014,21.7498c2.3527,14.0059,15.6507,23.7607,16.8397,38.1216
		c0.9124,10.8554,3.7969,24.773,11.4007,33.0231c3.8599,4.188,7.8964,6.0358,13.4757,8.1225
		c10.3368,3.8462,18.1312,11.5775,28.5814,14.8291c10.1597,3.1504,21.1804,2.9358,31.555,0.9617
		c9.5149-1.8225,15.3604,3.0106,23.1671,7.2995c8.9836,4.9469,16.8158,2.5561,26.558,4.9973
		c14.7395,3.7072,18.6877,26.8735,3.3654,33.5432c-5.4291,2.3655-14.867-1.4425-20.7251-1.5563
		c-14.5512-0.2777-23.2305-0.0137-33.5431,11.1973c-9.3115,10.1969-10.4755,21.7227-5.7685,34.4143
		c2.7567,7.427,17.0428,13.8546,11.9057,22.66c-5.9352,10.2115-14.5755,17.019-17.3471,29.1012
		c-1.6575,7.2126-4.2262,14.9566-2.7329,22.4078c1.6953,8.5403,7.7566,10.4388,12.8295,16.4241
		c2.757,3.2634,3.4662,5.7562,3.9471,9.9316c0.9872,8.5648-2.5054,17.5733-4.0746,25.6591
		c-1.5552,8.0205-1.6572,17.9014,4.2388,24.8098c6.5788,7.7198,16.3588,8.7942,9.8559,20.3221
		c-6.1372,10.8555-16.7769,18.2046-25.0521,27.2661c-4.7838,5.2131-10.1863,8.1351-15.7278,12.437
		c-4.3394,3.3665-12.1074,9.1108-5.3139,13.4998c8.0973,5.2268,18.8771-11.5899,24.9636-16.0674
		c11.1973-8.226,23.7873-14.8404,35.8316-21.6983l0.2399-0.1409l0.2158-0.1642c5.2638-4.023,16.335-5.6939,21.7879-2.1257
		c20.9647,13.7397,35.8695,17.005,42.158,18.1816c4.1124,0.7827,5.7444,2.1761,6.0235,2.8097c0,0,2.7831,6.2115,3.7577,8.3876
		c-0.4556,1.1755-2.5057,6.555-2.5057,6.555l4.1617,1.2016c1.9867,0.5565,4.9984,1.0239,8.0724,0.0126
		c4.0124-1.3405,6.9977-4.6426,8.871-9.843l0.0241-0.0367c0-0.0149,0.0123-0.0404,0.0123-0.0645
		c0.0518-0.0768,0.0644-0.1009,0.0644-0.1009c2.1498-3.9344,3.2894-9.3129,3.2894-15.614c0-15.0942-13.0327-41.6887,0.582-54.3806
		c8.6793-8.0836,26.1652-6.8831,37.0091-6.7946c17.789,0.1516,18.8771-14.6523,18.8645-29.0886
		c0-5.3899-1.6827-15.032,1.2534-19.1444c4.2514-5.9579,14.3617-4.1617,19.9147-8.8436
		c9.3129-7.8311,7.9468-24.9005,10.1723-35.9717c3.4295-17.0165,5.6311-21.9252,18.9163-32.5915
		c10.2356-8.2122,2.6937-19.9915,4.1491-30.5575c0.5828-4.1861,9.4642-16.2961,14.7403-12.4095
		c3.643,2.6671-1.0121,18.8894-1.4299,22.6221c-1.9099,17.4606-5.136,38.9316,4.7953,54.6847c0,0,1.3669,2.3411,1.3798,2.3411
		c2.8083,4.9091,7.023,12.2708,13.0831,12.2215c6.0475,0.0493,10.262-7.3124,13.0694-12.2215c0.0149,0,1.3795-2.3411,1.3795-2.3411
		c9.9338-15.7531,6.7063-37.224,4.7953-54.6847c-0.4026-3.7324-5.073-19.9551-1.4299-22.6221
		c5.2773-3.8866,14.1597,8.2234,14.7417,12.4095c1.4551,10.566-6.0865,22.3453,4.1502,30.5575
		c13.2966,10.6649,15.4854,15.575,18.9138,32.5915c2.2403,11.0726,0.8734,28.1407,10.1726,35.9717
		c5.5549,4.6818,15.6782,2.8854,19.9155,8.8436c2.9372,4.1124,1.266,13.7556,1.2534,19.1444
		c0,14.4363,1.0754,29.2399,18.8656,29.0886c10.8568-0.0885,28.3301-1.2889,37.022,6.7946
		c13.601,12.692,0.5694,39.2864,0.5694,54.3806c0,6.3011,1.1371,11.6784,3.2891,15.614c0,0,0.0118,0.0241,0.0634,0.1009
		c0,0.0255,0.014,0.0496,0.014,0.0645l0.0241,0.0367c1.8729,5.2004,4.8583,8.5025,8.8699,9.843
		c3.0745,1.0113,6.0873,0.5428,8.0718-0.0126l4.1628-1.2016c0,0-2.0494-5.3795-2.5051-6.555
		c0.9717-2.1761,3.7565-8.3876,3.7565-8.3876c0.2785-0.6335,1.9099-2.0259,6.0234-2.8097
		c6.2885-1.1777,21.192-4.4419,42.158-18.1816c5.454-3.5682,16.5241-1.8973,21.7865,2.1257l0.2147,0.1642l0.2421,0.1409
		c12.0458,6.8568,24.6329,13.4724,35.8442,21.6983c6.0728,4.4775,16.8537,21.2944,24.9636,16.0674
		c6.7811-4.389-0.9869-10.1336-5.3129-13.4998c-5.5426-4.3018-10.9591-7.2239-15.7418-12.437
		c-8.2753-9.0615-18.9161-16.4106-25.0392-27.2661c-6.5156-11.528,3.2656-12.6023,9.8556-20.3221
		c5.8845-6.907,5.7836-16.7892,4.2273-24.8095c-1.5675-8.085-5.0601-17.0935-4.0743-25.6594
		c0.4797-4.1743,1.1904-6.6671,3.9471-9.9313c5.073-5.9856,11.1345-7.8852,12.841-16.4244
		c1.4818-7.4512-1.0872-15.1951-2.7455-22.4075c-2.7579-12.0825-11.4108-18.8897-17.3458-29.1015
		c-5.124-8.8054,9.1484-15.2329,11.9052-22.66c4.721-12.6906,3.5436-24.2163-5.7685-34.4141
		c-10.3011-11.2113-18.9788-11.4753-33.542-11.1976c-5.8587,0.1126-15.298,3.9218-20.7256,1.5563
		c-15.3226-6.6685-11.3755-29.8357,3.3765-33.5432c9.7318-2.4412,17.5632-0.0493,26.5463-4.9973
		c7.8062-4.2878,13.6525-9.1209,23.1663-7.2995c10.3757,1.9741,21.3965,2.1887,31.5564-0.9617
		c10.4503-3.2516,18.2576-10.9818,28.5823-14.8291c5.579-2.0879,9.6158-3.9345,13.4749-8.1225
		c7.6039-8.2489,10.4901-22.1676,11.4008-33.0231c1.2015-14.3609,14.4993-24.1157,16.8397-38.1216
		c1.2156-7.2881,0.2169-14.3228,2.2025-21.7498c3.0762-11.4512,10.0591-21.206,13.5892-32.3654
		c1.4554-4.5806,1.2889-7.6557,3.8473-12.0332c2.3392-3.986,6.2874-6.2252,7.4262-11.0586
		c2.1885-9.2749-2.8341-19.4473,0.9617-28.3804c3.3547-7.9069,12.0217-10.5008,10.5411-20.4714
		c-0.2158-1.4414-0.4063-2.8084-0.1149-3.7955c0.4052-1.3405,1.6208-2.6306,2.7971-3.8714
		c1.3405-1.4163,2.7192-2.8716,3.3401-4.7827h-0.0006C845.4645,159.8237,841.4788,153.3332,837.4605,150.0048z M245.4391,214.4294
		c40.2758,11.0586,54.7488,39.6916,83.6342,65.5022c-0.241,0.0757-0.4946,0.1272-0.7344,0.1777
		c1.6182,1.732,19.6987,16.3591,4.2374,27.126l0,0c-16.4723,11.4512-40.3745-4.8468-72.6264-14.6131
		c-34.2991-10.3872-57.1006-5.0615-52.5968-8.5403c24.0661-18.6624,69.3885,4.0987,65.1245-15.373
		c-3.3158-15.171-31.8224-8.326-33.9469-11.0081c-2.4286-3.0748,5.1994-9.4645,0.1906-13.9807
		c-4.2903-3.8725-30.7206,2.1761-37.6048,21.9645C192.5013,290.4839,201.0509,215.0744,245.4391,214.4294z M139.2514,171.2108
		c1.0009-4.0241,2.3667-7.1367,4.0872-9.3633c19.9674-11.6395,85.1275,25.6854,82.0379,39.8062
		c-4.3901,7.3514-13.0442,10.1726-16.2958,14.2976c-17.6248,22.3192-14.1449,41.0321-18.0048,35.1866
		c-2.1005-3.1504-0.9746-15.8917,0.9617-38.1214c1.8858-21.5353-7.0978-25.4192-14.0437-26.2548
		c-6.9969-0.8354-12.7665,28.9498-0.7714,48.6486C193.8096,262.6509,130.9509,204.4118,139.2514,171.2108z M49.3583,172.8831
		c-9.7318-7.4157,0.4178-16.6012,7.1275-9.1959c-1.173-8.5393,11.4615-11.7909,16.3751-3.1828
		c-11.6692,1.071-8.7538,10.6065-3.7302,13.3921c1.6642,0.9181,8.3946,3.146,17.2622,6.8165
		c-0.6254-1.8764-1.2016-4.1181-1.6264-6.3034c-1.9029-0.326-3.6901-1.5621-4.5495-3.3619
		c-1.2215-2.5398-0.1126-5.2085,2.4642-5.9694c2.5858-0.7678,5.6847,0.6543,6.9381,3.2012c1.2453,2.556,0.1435,5.2578-2.4701,6.0244
		c-0.0779,0.0254-0.1606,0.0276-0.2376,0.0447c0.6717,2.6169,1.8054,5.7699,3.4206,8.0355
		c3.9353,1.7113,8.1763,3.6831,12.5367,5.9236c-0.4705-2.1085-0.7964-4.8253-0.9205-7.4409
		c-1.9237-0.6015-3.6075-2.0912-4.2248-3.985c-0.8667-2.6914,0.7081-5.1602,3.5111-5.5297
		c2.8119-0.3789,5.8293,1.4966,6.7279,4.1984c0.9124,2.704-0.6644,5.2085-3.5063,5.5746c-0.086,0.0137-0.1653-0.0022-0.2617,0.0081
		c0.3214,2.945,1.1248,6.6259,2.7307,9.159c0.0642,0.0964,0.1065,0.1744,0.1583,0.2708c2.029,1.1134,4.0642,2.2738,6.0843,3.5087
		c1.3302,0.808,2.6318,1.6264,3.9182,2.4367c-0.0308-2.0947,0.1791-4.6518,0.5635-7.1047
		c-1.8822-0.9492-3.3284-2.7109-3.5856-4.6657c-0.3533-2.7717,1.7861-4.8687,4.7933-4.7011
		c3.0185,0.1676,5.7982,2.5583,6.1885,5.3521c0.3856,2.8086-1.7768,4.9388-4.8286,4.7471c-0.086-0.0081-0.1779-0.0345-0.2673-0.0415
		c-0.2458,2.7053-0.1813,6.0751,0.7403,8.7438c41.6623,27.4152,57.8732,55.3008,64.4621,69.1038
		c7.2045,15.078,2.3392,20.5217-0.7941,20.4998c-3.1137-0.0204-14.8277,2.625-23.3739-16.9279
		c-16.6228-38.0207-39.0981-62.4768-49.1042-70.534c-1.2352-0.9987-2.6239-2.0671-4.1239-3.1885
		c-2.5861,0.2009-5.3991,1.1455-7.6302,2.1646c0.0423,0.0735,0.0905,0.1527,0.1272,0.2343
		c1.1399,2.7878-0.1998,5.5195-2.9899,6.0934c-2.7923,0.5659-5.9568-1.2419-7.0608-4.0171
		c-1.0996-2.7558,0.2362-5.4553,2.9885-6.0292c1.9399-0.4074,4.062,0.3685,5.56,1.8089c1.9293-1.033,3.9723-1.9409,5.7881-2.5974
		c-3.5444-2.5273-7.4674-5.1373-11.4397-7.5338c-0.1606,0.0022-0.3329,0-0.5187-0.008c-2.8741-0.1527-6.3244,0.9813-8.9458,2.1852
		c0.0367,0.0758,0.086,0.1516,0.1182,0.2308c1.0743,2.7029-0.2617,5.3795-2.9851,5.9534c-2.7214,0.5692-5.7676-1.1719-6.8109-3.8737
		c-1.0306-2.6697,0.3029-5.313,2.9921-5.8891c1.887-0.4074,3.9426,0.3248,5.3795,1.7296c2.1694-1.1672,4.4879-2.19,6.4309-2.8477
		c-6.1232-3.3869-12.0284-5.9683-16.4059-6.5169c-11.1183-1.4095-13.4289,7.9023-8.0939,10.6938
		c-0.5327,4.3154-12.2545,3.8885-11.9951-4.9745C45.1988,185.561,37.7536,173.5912,49.3583,172.8831z M167.1303,369.6787
		c-5.9982,37.8954-32.5927,18.7129-39.0717,13.2978c-12.523,9.8433-29.7073-4.4921-31.0111-5.5171
		c-14.566-21.1748-5.9716-47.5869-5.9716-47.5869c-30.8458-14.93-21.1418-43.1704,4.3018-45.7265
		c11.1984-1.1133,45.8789,0.5946,36.9839-7.9457c-8.6919-8.3386-30.4028-0.0507-41.4373,4.5173
		c-4.3811,1.8135-8.9903,3.1897-13.7215,3.6716c-2.1921,0.2227-4.327,0.3914-6.4031-0.4097
		c-1.7872-0.6899-3.5615-1.7502-3.6798-3.768c-0.1331-2.3244-1.3602-4.8939-2.0649-7.1115
		c-1.4885-4.6748-3.0462-9.3518-4.9973-13.8579c-0.234-0.5416-0.4786-1.0799-0.7266-1.616
		c-0.3155-0.6829-1.9111-3.7324-3.0229-4.1376c-0.5568-0.6072-1.1388-1.2144-1.7079-1.8214
		c-1.9363-2.0248-3.7705-3.9347-4.8323-6.0728c-1.127-2.2647-1.6961-4.6428-2.254-6.9476c-0.5442-2.2644-1.1122-4.6059-2.214-6.7177
		c-0.2158-0.4178-0.4545-0.8102-0.7199-1.1902c-8.857-40.526,82.8864-10.2862,107.6488,35.9213
		c4.403,8.2248-18.1572-10.9703-26.9615-15.7782c-8.6681-4.7322-28.0501-10.603-29.2794-3.9359
		c-2.1369,11.6028,20.4715,17.6882,29.4674,20.662c18.7899,6.2255,34.351,9.2106,26.7735,17.5618
		c-7.605,8.3761-35.2634-1.7457-28.4054,18.1942c4.4279,12.8674,19.1307,4.1754,18.5108,6.9336
		c-0.6336,2.7579-9.5286,14.9802-3.9219,24.0532c5.7203,9.2487,16.1831,7.5293,20.9028-17.346
		c3.6912-19.3947,25.8819-26.5555,17.8098-16.2198C158.894,324.143,171.5319,341.8309,167.1303,369.6787z M206.2743,404.5898
		c-26.9343-14.6027-31.6032-64.4349-30.7724-72.709c2.4379-24.3482,19.2868-38.8341,17.2897-28.7086
		c-2.5743,13.1212-0.6025,39.6882,16.381,47.0396c17.455,7.5509,10.1322-16.8411,10.0173-21.9518
		c-0.1286-4.955,14.3205,34.0515,36.6123,33.8046c20.5595-0.2362,0.0182-25.9724-21.9418-40.658
		c-7.8471-5.2439,22.6269,9.3014,21.0636,1.0642c-1.3268-6.9187-16.1764-16.2238-46.3965-25.851
		c-13.5839-4.3257,36.4204-5.0352,66.6212,7.1471c31.7215,12.7858,59.4328,46.997,40.7623,54.0018
		c21.5044,32.4537,12.7228,52.745-4.7426,56.5497c-21.5111,4.6908-46.0695-9.4011-56.8812-16.1593
		C254.2871,398.159,238.8407,422.2435,206.2743,404.5898z M380.892,503.5445c-2.9095-1.6849,0,0-22.8368,8.7552
		c-22.8505,8.755-41.2983-2.2406-44.6255-9.4403c-3.316-7.1975-7.7188-8.1848-13.4379-4.287
		c-5.7309,3.8966-3.0992,9.7937,2.138,13.8419c6.3645,4.9343,34.7702,4.187,48.9781,15.9662
		c14.1964,11.7681-2.9991,40.4641-2.9991,40.4641c0.5075-11.9297-52.1526,6.7327-60.5921-29.3411
		c-2.6065-11.1836-7.3135-14.3732-11.5394-13.8293c-7.5408,0.9872-9.6043,20.7744-2.0245,27.2031
		c8.5403,7.2502,35.6801,10.7795,41.3992,21.2309c5.7309,10.4387,1.7457,21.3701-0.9743,32.9095
		c-25.0393-2.2153-43.4871,10.1723-55.8358-27.6965c-1.5311-4.6804-11.1609-4.3523-10.6545,7.1093
		c0.9239,20.942,22.9262,29.8853,20.0798,51.3585c-1.9478,14.6383,4.4534,38.274,0.5694,44.7772
		c-7.1861,0.4052-49.9008-16.2339-56.8849-29.4171c-10.1473-19.1548,16.4737-46.7764,12.2349-55.2801
		c-0.9617-1.9478-4.809-5.1752-13.0705,13.1462c-11.9698,26.5199-30.9366,23.5222-30.9366,23.5222
		c-11.5635-37.2252,25.5456-47.6628,43.7409-65.136c18.1942-17.4746,5.3521-21.3197-10.4135-7.2264
		c-15.7656,14.0851-38.0722,8.8331-50.206,2.3047c14.348-60.8482,69.3103-44.5247,80.432-45.2454
		c11.1216-0.7336,18.2836-7.542,14.728-12.0836c-5.8329-7.4522-42.4245,9.1739-63.9586,5.0226
		c-9.0842-1.7469-27.5953-19.9285-31.2014-33.3019c35.5411-27.6195,64.009-13.5242,95.2356-0.8597
		c12.7035,5.1626,12.4496,4.7563,23.8882,3.5808c11.4248-1.1775,8.9318-13.0327,0.2525-11.9194
		c-39.8807,5.073-43.2209-10.8061-43.2209-10.8061c-8.1982-5.5412-4.4921-27.9235-1.9097-33.5165
		c3.4155,0.1387,30.3406-3.2011,30.3406-3.2011c21.9886-1.2271,27.8719,3.0622,33.5031,10.1726
		c3.9356,4.9732,4.9351,10.0473,4.3141,17.1061c-1.3405,15.4865,10.5904,14.0703,9.5541,16.0822
		c-1.0502,2.0234-9.6539,0.2777-16.6253-8.4016c-13.7156-17.0809-36.5664-18.7003-38.8067-16.4348
		c-4.9342,5.0113,10.4517,20.0411,35.0605,24.6974c17.3457,3.2908,8.1741,13.4883-0.6198,19.2203
		c-8.8068,5.7444-26.1024,9.073-47.9909,3.2264c-21.8888-5.8329-42.1972,2.8475-43.8292,8.1996
		c-1.8091,5.9579,32.2643,8.5151,42.601,5.3013c31.0123-9.6284,35.7823-0.2662,31.2017,4.9354
		c-25.5834,29.0244-48.0416,25.7336-60.3281,29.1517c-12.2842,3.402-27.2532,20.7744-25.0647,22.7095
		c2.1772,1.9374,18.1575-5.5426,18.1575-5.5426c7.6302-3.0737,38.5026-28.8087,42.8801-15.8906
		c4.3775,12.9052-18.0415,33.5681-26.1147,40.3986c-8.0712,6.8324-29.9105,24.1669-24.7733,27.5701
		c5.1374,3.404,22.3708-17.8028,25.7235-21.1934c3.341-3.4032,9.7685-7.7437,8.1996-1.0881
		c-11.83,50.408,1.6698,63.5293,3.2126,62.6052c1.5311-0.9228-14.487-17.9541,9.6536-81.0381
		c22.1917-58.0015,72.1189-91.0372,85.5316-99.5386c6.1117-3.8977,10.844,2.1372,6.8577,3.9975
		c-1.5815,0.7462-5.7685,4.1228-0.7459,6.8694c5.011,2.7452,16.5886-9.6917,29.1898-7.1494l0,0
		C396.3043,473.7592,384.6373,495.2818,380.892,503.5445z M425.3262,426.9654c-0.257,1.4266-3.0737,1.8488-4.1424,2.0486
		c-2.8587,0.5338-5.7718,0.3444-8.6608,0.3225c-2.284-0.0174-4.4201-0.5898-6.7256-0.6313
		c-5.8444-0.1045-11.6821-0.4085-17.5251-0.5231c-6.9061-0.1345-13.8935-0.4604-20.7525,0.6344
		c-5.7973,0.9264-11.7415,2.8271-16.1716,6.8327c-6.9258,6.2599,18.9791,1.7883,28.6086,0.7588
		c11.6807-1.2408,28.9028-1.8825,33.8037,5.6754c4.8961,7.5579-18.4604,18.8107-35.7697,17.5113
		c-27.6688-2.0845-33.2195-13.3392-50.431-12.7057c1.6653-9.4734,18.5854-27.4312,46.2956-29.2377
		c1.2626-0.0826,2.4516-0.1171,3.6052-0.1331c-4.9732-3.3609-9.7559-7.5671-14.0095-12.7928
		c-29.7855-36.6087-16.3176-49.8022-14.907-48.8851c1.4173,0.9261,4.9421,2.3011,20.951,4.9158
		c30.7082,5.0007,47.0555,27.3051,47.5697,29.8783c0.4683,2.3103-4.109,4.8928-4.2811,11.1275
		c-0.2984,10.8014,12.0847,18.4935,6.6651,16.4575c-24.5791-9.2336-33.4182-25.0874-41.5937-35.1017
		c-4.6574-5.7065-21.4845-19.3039-11.4212,0.846c9.8156,19.6494,40.6959,34.9904,55.6096,40.3537l0,0
		C423.0147,424.6663,425.589,425.5041,425.3262,426.9654z M715.0037,161.8474c1.7216,2.2266,3.0873,5.3392,4.0883,9.3633
		c8.2982,33.201-54.5596,91.4402-37.9711,64.1994c11.9943-19.6988,6.2241-49.484-0.7722-48.6486
		c-6.9465,0.8356-15.9307,4.7195-14.0443,26.2548c1.9374,22.2297,3.0611,34.971,0.9606,38.1214
		c-3.8585,5.8455-0.3782-12.8674-18.0031-35.1866c-3.2527-4.125-11.9056-6.9462-16.296-14.2976
		C629.875,187.5329,695.0363,150.208,715.0037,161.8474z M529.9929,280.1093c-0.2388-0.0504-0.4924-0.102-0.7333-0.1777
		c28.8866-25.8107,43.3573-54.4436,83.6345-65.5022c44.3879,0.6451,52.9378,76.0545,44.3213,51.2551
		c-6.8832-19.7883-33.3145-25.837-37.6046-21.9645c-5.0091,4.5162,2.6188,10.9059,0.1906,13.9807
		c-2.1246,2.6822-30.6318-4.1628-33.9473,11.0081c-4.2637,19.4717,41.0585-3.2894,65.1232,15.373
		c4.5041,3.4789-18.2962-1.8469-52.5965,8.5403c-32.2508,9.7663-56.1516,26.0643-72.6264,14.6131l0,0
		C510.2931,296.4684,528.3735,281.8413,529.9929,280.1093z M444.5844,442.0834c4.9009-7.5579,22.1239-6.9162,33.8035-5.6754
		c9.6295,1.0295,35.5343,5.5011,28.6089-0.7588c-4.4301-4.0056-10.3746-5.9063-16.1719-6.8327
		c-6.8588-1.0948-13.8464-0.7689-20.7523-0.6344c-5.8433,0.1146-11.6809,0.4186-17.5251,0.5231
		c-2.3059,0.0415-4.4419,0.614-6.7248,0.6313c-2.8898,0.0219-5.8029,0.2113-8.6619-0.3225
		c-1.0687-0.1998-3.8852-0.6221-4.1413-2.0486c-0.2662-1.4613,2.307-2.2991,3.2791-2.648h0.0003
		c14.9138-5.3633,45.7929-20.7043,55.6096-40.3537c10.0624-20.1498-6.7649-6.5525-11.4226-0.846
		c-8.1741,10.0143-17.0128,25.8681-41.5931,35.1017c-5.4188,2.036,6.9644-5.6561,6.666-16.4575
		c-0.1721-6.2347-4.7505-8.8172-4.2811-11.1275c0.5142-2.5732,16.8629-24.8776,47.5698-29.8783
		c16.0077-2.6147,19.5336-3.9897,20.9509-4.9158c1.4106-0.9171,14.8796,12.2764-14.9056,48.8851
		c-4.2536,5.2257-9.0363,9.432-14.0095,12.7928c1.1534,0.016,2.3426,0.0504,3.6049,0.1331
		c27.7114,1.8065,44.6303,19.7643,46.297,29.2377c-17.2129-0.6336-22.7622,10.6212-50.4321,12.7057
		C463.0448,460.8941,439.6879,449.6413,444.5844,442.0834z M695.3506,478.8701c-3.6052,13.3748-22.1295,31.5564-31.2129,33.3021
		c-21.5355,4.1514-58.1279-12.475-63.9608-5.0228c-3.5547,4.5417,3.6075,11.3492,14.7269,12.0836
		c11.1227,0.7209,66.0865-15.6025,80.4468,45.2457c-12.1467,6.5273-34.4544,11.7793-50.2186-2.3047v-0.0003
		c-15.753-14.093-28.6075-10.2482-10.4133,7.2253c18.1937,17.4732,55.3028,27.9109,43.7519,65.136
		c0,0-18.9788,2.998-30.9478-23.5219c-8.2501-18.3217-12.0963-15.0942-13.0708-13.1465
		c-4.2385,8.5036,22.3823,36.1256,12.2341,55.2804c-6.9829,13.1829-49.6963,29.823-56.886,29.4167
		c-3.8826-6.5032,2.5191-30.1388,0.5834-44.7771c-2.8604-21.4733,19.1419-30.4166,20.0672-51.3585
		c0.5049-11.4615-9.1097-11.7897-10.6408-7.1093c-12.3602,37.8691-30.8083,25.4814-55.8361,27.6965
		c-2.7315-11.5394-6.704-22.4705-0.9858-32.9096c5.7318-10.4514,32.8715-13.9807,41.4118-21.2308
		c7.5663-6.4276,5.5163-26.2159-2.0372-27.2028c-4.225-0.543-8.932,2.6455-11.5383,13.8291
		c-8.4406,36.0729-61.0878,17.4102-60.5943,29.3411c0,0-17.1807-28.696-2.998-40.4639
		c14.209-11.7793,42.6276-11.0322,48.9792-15.9665c5.2372-4.0491,7.8678-9.9453,2.1495-13.8417
		c-5.7306-3.8992-10.1333-2.9109-13.4491,4.2867c-3.3264,7.2012-21.7753,18.1953-44.6143,9.4404
		c-22.8483-8.7552-19.9388-10.4399-22.8483-8.7552c-3.7462-8.2612-15.3994-29.7841,12.5622-35.4276
		c12.6023-2.541,24.1795,9.896,29.2021,7.1494c5.011-2.7452,0.823-6.1232-0.7459-6.8691c-3.9989-1.8606,0.7333-7.8955,6.845-3.9978
		c13.4116,8.5028,63.3527,41.5385,85.5316,99.5388c24.1409,63.0826,8.1229,80.1143,9.6674,81.0381
		c1.5311,0.9241,15.0312-12.1971,3.2012-62.6051c-1.5687-6.6559,4.8583-2.3151,8.2114,1.0881
		c3.3407,3.3903,20.5721,24.5974,25.7095,21.1933c5.1363-3.402-16.7023-20.7377-24.773-27.5701
		c-8.0724-6.8304-30.481-27.4933-26.1158-40.3988c4.3775-12.9178,35.2496,12.8169,42.8911,15.8909
		c0,0,15.9688,7.4797,18.1449,5.5423c2.1901-1.9337-12.7788-19.3075-25.0645-22.7093
		c-12.2868-3.4169-34.7318-0.1275-60.3281-29.1516c-4.5809-5.2019,0.1894-14.5652,31.2017-4.9354
		c10.3505,3.2137,44.4109,0.6565,42.6013-5.3014c-1.6325-5.3532-21.9407-14.0325-43.8298-8.1996
		c-21.8768,5.8452-39.1849,2.518-47.9791-3.2264c-8.8057-5.732-17.9785-15.9298-0.6324-19.2203
		c24.6114-4.6566,39.9956-19.6875,35.0605-24.6974c-2.2266-2.2655-25.0914-0.6473-38.8055,16.4348
		c-6.9703,8.6793-15.5739,10.425-16.6253,8.4016c-1.0388-2.0119,10.8933-0.5957,9.5516-16.0825
		c-0.6198-7.0586,0.3811-12.1327,4.3281-17.1059c5.632-7.1115,11.5027-11.3996,33.4927-10.1726c0,0,26.924,3.3399,30.342,3.2012
		c2.5814,5.5927,6.2997,27.975-1.8987,33.5165c0,0-3.3536,15.8791-43.2335,10.8061c-8.6687-1.1122-11.1732,10.7428,0.2651,11.9194
		c11.4248,1.1763,11.1738,1.5815,23.8758-3.5808C631.3282,465.3461,659.7956,451.2506,695.3506,478.8701z M652.0712,404.5898
		c-32.5674,17.6537-48.0139-6.4309-48.0139-6.4309c-10.8117,6.7582-35.3701,20.8501-56.8826,16.1593
		c-17.4665-3.8047-26.2466-24.096-4.7423-56.5497c-18.6694-7.0048,9.0408-41.2159,40.762-54.0018
		c30.2025-12.1823,80.2064-11.4727,66.6228-7.1471c-30.2204,9.6273-45.0711,18.9323-46.3982,25.851
		c-1.563,8.2372,28.9124-6.3081,21.0647-1.0642c-21.9608,14.6857-42.501,40.4218-21.9423,40.658
		c22.2903,0.2469,36.7404-38.7596,36.6121-33.8046c-0.1138,5.1108-7.4374,29.5027,10.0176,21.9518
		c16.982-7.3514,18.9553-33.9183,16.3796-47.0396l0,0c-1.9963-10.1255,14.8518,4.3604,17.2919,28.7086
		C683.6736,340.1549,679.0052,389.9871,652.0712,404.5898z M813.7551,230.7389c-0.2662,0.38-0.5049,0.7724-0.7207,1.1902
		c-1.1018,2.1118-1.67,4.4533-2.2142,6.7177c-0.5565,2.3047-1.1281,4.6829-2.254,6.9476c-1.0626,2.138-2.8957,4.048-4.832,6.0728
		c-0.5705,0.6069-1.1522,1.2142-1.7093,1.8214c-1.1119,0.4052-2.7086,3.4547-3.024,4.1376c-0.2477,0.536-0.4926,1.0743-0.7263,1.616
		c-1.9514,4.5061-3.5089,9.1831-4.9979,13.8579c-0.7056,2.2176-1.9324,4.7871-2.0657,7.1115
		c-0.1183,2.0178-1.8926,3.0781-3.6797,3.768c-2.0747,0.8011-4.21,0.6324-6.4023,0.4097c-4.7305-0.482-9.34-1.8581-13.7209-3.6716
		c-11.0348-4.568-32.7468-12.8559-41.4373-4.5173c-8.895,8.5403,25.7852,6.8324,36.9836,7.9457
		c25.4433,2.5561,35.1476,30.7965,4.3007,45.7265c0,0,8.5958,26.412-5.9719,47.5869c-1.3035,1.025-18.4879,15.3604-31.0106,5.5171
		c-6.4802,5.4151-33.0752,24.5977-39.0718-13.2978c-4.4044-27.8478,8.236-45.5357-9.9946-68.8937l0,0
		c-8.0735-10.3356,14.1182-3.1748,17.8143,16.2198c4.7193,24.8753,15.1836,26.5947,20.9027,17.346
		c5.6065-9.073-3.2886-21.2953-3.9218-24.0532c-0.6199-2.7581,14.0829,5.9338,18.5108-6.9336
		c6.8591-19.9399-20.8007-9.8181-28.4057-18.1942c-7.5786-8.3512,7.9827-11.3363,26.7737-17.5618
		c8.996-2.9739,31.6041-9.0593,29.4672-20.662c-1.2291-6.6671-20.6102-0.7964-29.2789,3.9359
		c-8.8049,4.8079-31.3648,24.003-26.9621,15.7782C730.8682,220.4527,822.611,190.2128,813.7551,230.7389z M806.0672,184.5981
		c0.2606,8.863-11.4613,9.2899-11.9948,4.9745c5.3347-2.7915,3.0251-12.1032-8.0942-10.6938
		c-4.3774,0.5486-10.2838,3.13-16.4059,6.5169c1.943,0.6577,4.2615,1.6804,6.4297,2.8477c1.438-1.4048,3.4937-2.137,5.3807-1.7296
		c2.6895,0.5761,4.0227,3.2194,2.991,5.8891c-1.0435,2.7018-4.0883,4.4429-6.8098,3.8737
		c-2.7231-0.5739-4.0591-3.2505-2.9876-5.9534c0.0325-0.0792,0.0829-0.155,0.1194-0.2308c-2.6223-1.2039-6.0728-2.338-8.9467-2.1852
		c-0.1844,0.008-0.3581,0.0102-0.5184,0.008c-3.9717,2.3965-7.8958,5.0065-11.4388,7.5338
		c1.8146,0.6565,3.8574,1.5644,5.7881,2.5974c1.4969-1.4404,3.6204-2.2163,5.5599-1.8089c2.7523,0.5739,4.0883,3.2734,2.9888,6.0292
		c-1.1057,2.7752-4.2687,4.583-7.0597,4.0171c-2.7914-0.5739-4.1309-3.3055-2.9915-6.0934
		c0.0358-0.0815,0.0851-0.1607,0.1277-0.2343c-2.2316-1.0191-5.0444-1.9637-7.629-2.1646c-1.5003,1.1214-2.889,2.1899-4.1242,3.1885
		c-10.007,8.0572-32.4822,32.5134-49.1039,70.534c-8.5476,19.5529-20.2605,16.9075-23.3743,16.9279
		c-3.1333,0.0219-7.9984-5.4218-0.7941-20.4998c6.5895-13.803,22.7998-41.6886,64.4624-69.1038
		c0.9225-2.6686,0.9858-6.0385,0.7403-8.7438c-0.0885,0.007-0.1804,0.0333-0.2673,0.0415c-3.051,0.1917-5.2131-1.9385-4.8275-4.7471
		c0.39-2.7937,3.1697-5.1845,6.1871-5.3521c3.0073-0.1676,5.147,1.9294,4.7933,4.7011c-0.2573,1.9548-1.702,3.7165-3.5856,4.6657
		c0.3856,2.4529,0.5958,5.0099,0.5638,7.1047c1.2862-0.8104,2.5881-1.6287,3.9169-2.4367c2.0203-1.2349,4.0552-2.3952,6.0845-3.5087
		c0.0527-0.0964,0.0941-0.1744,0.1597-0.2708c1.6056-2.5331,2.4087-6.214,2.7303-9.159c-0.0964-0.0104-0.176,0.0056-0.2617-0.0081
		c-2.843-0.3661-4.4189-2.8705-3.5066-5.5746c0.8989-2.7018,3.9152-4.5773,6.7274-4.1984c2.8038,0.3695,4.3786,2.8383,3.5105,5.5297
		l0,0c-0.6176,1.8938-2.3011,3.3836-4.2245,3.985c-0.1233,2.6156-0.45,5.3324-0.9208,7.4409
		c4.3601-2.2404,8.6014-4.2123,12.5378-5.9236c1.6152-2.2657,2.7478-5.4186,3.4203-8.0355
		c-0.0779-0.0171-0.1603-0.0193-0.2387-0.0447c-2.6122-0.7667-3.7151-3.4685-2.4687-6.0244
		c1.2548-2.5469,4.3522-3.9689,6.938-3.2012c2.5757,0.7609,3.6854,3.4295,2.4642,5.9694c-0.8597,1.7998-2.6463,3.0358-4.5495,3.3619
		c-0.4248,2.1852-1.0009,4.4269-1.6263,6.3034c8.8676-3.6705,15.5989-5.8983,17.2622-6.8165
		c5.0236-2.7856,7.939-12.3211-3.7302-13.3921c4.9133-8.6081,17.5492-5.3566,16.3751,3.1828
		c6.7094-7.4053,16.8604,1.7802,7.1274,9.1959C820.5794,173.5912,813.1319,185.561,806.0672,184.5981z"/>
	<path d="M594.4085,555.1151c-5.3784,12.9948-21.0546,14.4744-25.3702,22.5212c-4.3005,8.0606,4.9354,11.3489,9.9579,7.1115l0,0
		C600.5317,566.5399,597.3053,548.131,594.4085,555.1151z"/>
	<path d="M344.3901,487.057c-14.4237,2.5802-18.6243-6.1495-23.4199-4.9228c-4.7953,1.2282,6.0739,22.8012,27.5701,15.1836
		C352.1719,496.0266,358.8266,484.4757,344.3901,487.057z"/>
</g>
</svg>
